# xmcd
# 
# Track frame offsets:
#     150
#     19282
#     36345
#     54545
#     72229
#     92536
#     122509
#     137125
#     154212
# 
# Disc length: 2417
# 
# Revision: 1
# Processed by: cddbd v1.5.2PL0 Copyright (c) Steve Scherf et al.
# Submitted via: fre:ac v1.0.31
# 
DISCID=78096f09
DTITLE=Gift - Blue Apple (Digitally Remastered)
DYEAR=1974
DGENRE=KrautRock
TTITLE0=Blue Apple (Digitally Remastered)
TTITLE1=Rock Scene (Digitally Remastered)
TTITLE2=Don't Waste Your Time (Digitally Remastered)
TTITLE3=Psalm (Digitally Remastered)
TTITLE4=Everything's Alright (Digitally Remastered)
TTITLE5=Go To Find A Way (Digitally Remastered)
TTITLE6=Reflections Part 1 (Digitally Remastered)
TTITLE7=Reflections Part 2 (Digitally Remastered)
TTITLE8=Left The Past Behind (Digitally Remastered)
EXTD=
EXTT0=
EXTT1=
EXTT2=
EXTT3=
EXTT4=
EXTT5=
EXTT6=
EXTT7=
EXTT8=
PLAYORDER=
